<svg xmlns="http://www.w3.org/2000/svg" viewBox="0 0 32 32" width="32" height="32">
  <!-- Background circle -->
  <circle cx="16" cy="16" r="16" fill="#3B82F6"/>
  
  <!-- Document/Invoice icon -->
  <rect x="8" y="6" width="16" height="20" rx="2" fill="white" stroke="white" stroke-width="1"/>
  
  <!-- Document fold -->
  <path d="M24 6 L20 6 L20 10 L24 10 Z" fill="#3B82F6"/>
  
  <!-- Lines representing text -->
  <rect x="10" y="12" width="8" height="1" fill="#6B7280" rx="0.5"/>
  <rect x="10" y="14" width="6" height="1" fill="#6B7280" rx="0.5"/>
  <rect x="10" y="16" width="7" height="1" fill="#6B7280" rx="0.5"/>
  <rect x="10" y="18" width="5" height="1" fill="#6B7280" rx="0.5"/>
  <rect x="10" y="20" width="9" height="1" fill="#6B7280" rx="0.5"/>
  
  <!-- Barcode representation -->
  <rect x="10" y="22" width="1" height="2" fill="#EF4444"/>
  <rect x="12" y="22" width="1" height="2" fill="#EF4444"/>
  <rect x="14" y="22" width="1" height="2" fill="#EF4444"/>
  <rect x="16" y="22" width="1" height="2" fill="#EF4444"/>
  <rect x="18" y="22" width="1" height="2" fill="#EF4444"/>
  <rect x="20" y="22" width="1" height="2" fill="#EF4444"/>
  <rect x="22" y="22" width="1" height="2" fill="#EF4444"/>
</svg>
